<svg width="242" height="243" viewBox="0 0 242 243" fill="none" xmlns="http://www.w3.org/2000/svg">
<path fill-rule="evenodd" clip-rule="evenodd" d="M172.976 18.4133C129.836 11.3096 134.235 82.417 76.8341 72.6846C18.123 62.7299 0.575382 132.954 18.123 171.744C37.0755 213.638 158.432 236.16 201.849 205.277C250.713 170.517 253.918 31.7417 172.976 18.4133Z" fill="#D9E8FF"/>
<path fill-rule="evenodd" clip-rule="evenodd" d="M82.7594 97.5752C82.7594 97.5752 87.1101 107.101 90.8889 111.517C96.2512 117.783 103.908 122.989 106.784 127.876C113.616 139.489 110.586 145.169 110.586 145.169C110.586 145.169 106.976 132.65 101.803 126.536C97.854 121.87 90.0982 116.694 87.5058 112.862C82.8358 105.958 80.4233 99.3441 80.4233 99.3441L82.7594 97.5752Z" fill="white"/>
<path d="M136.474 198.963C118.635 199.799 100.809 200.909 83.0033 202.291C80.7199 202.518 79.0306 202.552 79.1208 202.795C77.5155 202.693 74.6137 201.816 72.9268 202.518C74.1976 202.814 76.5996 203.941 76.7423 205.243C59.9396 206.216 43.0437 205.56 26.3662 203.286C42.6955 204.403 59.0745 204.787 75.4379 204.435C73.3292 203.014 70.6173 202.53 68.1502 203.135C71.3302 201.591 75.0157 201.12 78.4794 201.816C75.8365 198.847 74.085 195.088 73.5085 191.149C76.1487 192.961 78.2601 195.541 79.5201 198.493C79.3996 192.944 83.31 187.553 88.6062 185.966C85.224 190.291 83.4361 195.845 83.6574 201.34C100.566 199.89 117.512 198.875 134.473 198.298C133.636 197.631 133.067 196.635 132.916 195.572C133.745 194.862 134.97 194.653 135.987 195.048C136.733 189.116 140.843 183.729 146.352 181.461C143.284 184.942 141.152 189.247 140.24 193.805C141.187 193.229 142.385 193.089 143.438 193.432C143.138 194.718 142.387 195.892 141.348 196.701C162.349 191.881 184.394 200.092 205.727 197.08C194.958 200.578 183.322 197.866 172.065 196.69C155.586 195.048 139.76 198.298 136.474 198.963Z" fill="white"/>
<path d="M180.91 70.6955C181.095 68.9306 182.608 67.6077 184.16 66.7586C186.967 65.2229 190.272 64.6236 193.436 65.0766C194.869 65.2817 195.962 63.9107 196.986 62.8834C199.643 60.217 203.704 59.2435 207.41 59.8594C211.116 60.4754 214.475 62.5312 217.18 65.1489C219.884 67.7666 221.996 70.9341 223.95 74.1558C224.36 74.8316 225.31 74.8496 226.097 74.8108C227.796 74.7272 229.583 74.7743 231.067 75.6085C232.55 76.4426 233.593 78.2943 232.993 79.8917C232.712 80.6399 232.114 81.2362 231.432 81.649C230.072 82.4725 228.422 82.6142 226.839 82.7356C216.276 83.5455 205.714 84.3554 195.151 85.1653C192.261 85.3869 189.326 85.6059 186.488 85.0155C183.649 84.4251 180.871 82.9063 179.418 80.388C177.965 77.8696 178.208 74.2823 180.437 72.4219C180.908 72.0289 180.846 71.3071 180.91 70.6955" fill="white"/>
<path d="M145.555 86.9456C147.861 89.6048 159.76 88.6736 160.146 93.5386C158.783 93.914 157.419 94.2895 156.056 94.665C153.84 95.2754 151.598 95.8961 149.593 97.024C148.652 97.5533 147.533 98.2077 146.576 97.7083C142.876 95.7772 138.572 95.1772 134.421 95.5758C130.27 95.9744 126.254 97.3326 122.487 99.1286C120.52 100.066 118.303 101.149 116.268 100.374C108.835 97.5442 100.356 97.5937 92.9568 100.51C91.645 101.027 90.1824 100.453 88.8914 99.8859C87.495 99.2724 86.0986 98.6589 84.7023 98.0454C86.5032 95.9771 94.2021 93.0997 95.7717 91.098C96.0475 90.7462 106.328 83.5879 117.601 86.8222C118.106 86.5842 135.638 83.5879 145.555 86.9456Z" fill="white"/>
<path fill-rule="evenodd" clip-rule="evenodd" d="M99.4768 120.751C92.9402 114.512 85.3936 108.197 83.6333 99.3161C86.8641 107.648 94.0383 113.646 100.33 119.972C106.622 126.299 112.582 134.19 112.193 143.123C122.481 140.867 133.143 140.339 143.602 141.565C144.674 136.717 147.795 132.635 150.244 128.32C156.314 117.623 158.367 105.17 160.317 93.0148C160.811 89.9417 157.063 88.1201 154.059 87.3515C151.059 86.5839 148.059 85.8162 145.059 85.0486C139.42 83.6059 133.578 82.153 127.843 83.1395C123.965 83.8065 120.135 85.581 116.257 84.9166C110.083 83.8591 103.532 85.1983 98.262 88.5957C95.6123 90.3037 93.2576 92.5177 90.3654 93.7673C84.2782 96.3972 78.9165 100.698 75.0169 106.078C72.9795 95.4954 76.4121 84.6656 80.4252 74.6691C84.9114 63.4943 90.5428 52.1878 100.195 45.0301C114.346 34.5359 132.797 36.5785 147.518 46.2506C162.239 55.9227 171.234 71.8723 174.141 89.2945C174.479 91.3208 174.718 93.514 173.768 95.3337C172.818 97.1534 172.46 98.2064 170.911 96.864C169.59 95.7195 168.185 94.5327 166.472 94.2032C164.759 93.8737 162.68 94.7677 162.348 96.4872C159.915 109.08 157.361 121.993 150.602 132.878C148.842 135.713 146.793 138.419 145.673 141.565C144.817 143.972 144.541 146.542 144.271 149.083C143.709 154.379 143.146 159.675 142.584 164.972C142.347 167.204 142.016 169.635 140.397 171.183C138.851 172.661 136.549 172.926 134.422 173.116C127.516 173.732 120.61 174.348 113.704 174.964C112.469 175.074 111.068 175.13 110.166 174.276C109.471 173.618 109.279 172.598 109.142 171.649C108.172 164.911 108.172 158.033 109.143 151.296C110.535 141.629 106.227 131.738 99.4411 124.74C95.9046 121.093 91.7343 118.112 88.2036 114.459C84.6729 110.806 81.7179 106.216 81.5061 101.13C83.9085 107.814 88.3357 113.749 94.0481 117.944C102.585 124.213 108.667 133.764 110.753 144.175C112.392 135.27 106.014 126.989 99.4768 120.751Z" fill="white"/>
<path fill-rule="evenodd" clip-rule="evenodd" d="M145.47 125.365C145.082 125.029 145.256 124.404 145.442 123.924C146.039 122.384 146.44 120.768 146.633 119.126C146.697 118.582 146.799 117.942 147.287 117.698C147.518 117.907 147.483 118.272 147.43 118.579C147.025 120.911 146.603 123.29 145.47 125.365Z" fill="#ECA718"/>
<path fill-rule="evenodd" clip-rule="evenodd" d="M81.8121 141.098C80.7762 140.528 80.3947 139.249 80.1223 138.094C78.786 132.431 77.8091 126.682 77.1995 120.895C77.1608 120.527 77.143 120.102 77.4096 119.846C77.9809 120.523 78.0817 121.468 78.1694 122.35C78.7996 128.695 80.0209 134.98 81.8121 141.098Z" fill="#ECA718"/>
<path fill-rule="evenodd" clip-rule="evenodd" d="M163.959 121.806C164.898 118.654 165.59 115.428 166.027 112.167C166.086 111.725 166.252 111.17 166.694 111.135C166.953 111.362 166.928 111.766 166.879 112.107C166.463 115.014 165.869 117.896 165.102 120.731C164.946 121.306 164.51 122.028 163.959 121.806H163.959Z" fill="#ECA718"/>
<path fill-rule="evenodd" clip-rule="evenodd" d="M140.034 197.588C140.546 196.191 141.485 194.956 142.69 194.09C141.409 194.169 140.163 194.729 139.252 195.636C139.754 191.682 141.013 187.826 142.941 184.342C139.375 187.281 137.074 191.716 136.719 196.335C135.869 195.838 134.81 195.718 133.871 196.012C134.739 196.996 135.606 197.979 136.474 198.963C118.635 199.799 100.809 200.909 83.0033 202.291C82.0776 197.35 83.2813 192.045 86.2469 187.994C82.3335 190.765 79.9177 195.549 80.0036 200.356C78.2587 198.019 77.3894 194.681 74.7691 193.345C75.2328 195.636 75.7682 196.151 78.8462 202.067C78.972 202.309 79.0306 202.552 79.1208 202.795C77.5155 202.693 74.6137 201.816 72.9268 202.518C74.1976 202.814 76.5996 203.941 76.7423 205.243C59.9396 206.216 43.0437 205.56 26.3662 203.286C42.6955 204.403 59.0745 204.787 75.4379 204.435C73.3292 203.014 70.6173 202.53 68.1502 203.135C71.3302 201.591 75.0157 201.12 78.4794 201.816C75.8365 198.847 74.085 195.088 73.5085 191.149C76.1487 192.961 78.2601 195.541 79.5201 198.493C79.3996 192.944 83.31 187.553 88.6062 185.966C85.224 190.291 83.4361 195.845 83.6574 201.34C100.566 199.89 117.512 198.875 134.473 198.298C133.636 197.631 133.067 196.635 132.916 195.572C133.745 194.862 134.97 194.653 135.987 195.048C136.733 189.116 140.843 183.729 146.352 181.461C143.284 184.942 141.152 189.247 140.24 193.805C141.187 193.229 142.385 193.089 143.438 193.432C143.138 194.718 142.387 195.892 141.348 196.701C162.349 191.881 184.394 200.092 205.727 197.08C194.958 200.578 183.322 197.866 172.065 196.69C161.411 195.577 150.61 195.88 140.034 197.588Z" fill="#00160A"/>
<path fill-rule="evenodd" clip-rule="evenodd" d="M149.49 120.484C149.748 120.864 149.667 121.372 149.563 121.82C148.94 124.509 147.841 127.086 146.333 129.394C145.913 128.869 146.299 128.109 146.652 127.536C147.591 126.013 148.282 124.336 148.687 122.591C148.859 121.851 148.998 121.061 149.49 120.484H149.49Z" fill="#ECA718"/>
<path fill-rule="evenodd" clip-rule="evenodd" d="M113.183 134.055C113.297 133.953 113.474 134.058 113.579 134.169C114.051 134.666 114.333 135.341 114.354 136.028C113.722 135.688 113.259 135.048 113.132 134.339C113.114 134.24 113.108 134.122 113.183 134.055L113.183 134.055Z" fill="#ECA718"/>
<path fill-rule="evenodd" clip-rule="evenodd" d="M162.929 113.234C162.76 116.228 162.08 119.192 160.925 121.958C160.895 122.029 160.863 122.103 160.805 122.154C160.633 122.302 160.344 122.142 160.283 121.924C160.221 121.705 160.309 121.475 160.392 121.264C161.206 119.194 161.747 117.016 161.994 114.805C162.068 114.147 162.274 113.311 162.929 113.234L162.929 113.234Z" fill="#ECA718"/>
<path fill-rule="evenodd" clip-rule="evenodd" d="M112.082 128.893C110.972 127.387 110.08 125.72 109.442 123.96C109.359 123.734 109.409 123.352 109.641 123.415C109.728 123.438 109.78 123.526 109.823 123.606C110.786 125.409 111.749 127.212 112.712 129.016C112.663 129.287 112.245 129.114 112.082 128.893H112.082Z" fill="#ECA718"/>
<path fill-rule="evenodd" clip-rule="evenodd" d="M80.4963 97.5968C79.9867 97.3314 79.9662 96.6181 80.0274 96.0449C81.1676 85.3623 86.347 75.164 94.2888 67.9644C94.4713 69.3197 93.4295 70.4935 92.5057 71.4984C85.9254 78.656 81.6598 87.926 80.4963 97.5968Z" fill="#00160A"/>
<path fill-rule="evenodd" clip-rule="evenodd" d="M147.259 97.5862C147.404 94.0787 146.82 90.2184 145.555 86.9456C147.861 89.6048 147.956 93.4739 147.932 96.9996C151.609 94.8032 155.867 93.5967 160.146 93.5386C158.783 93.914 157.419 94.2895 156.056 94.665C153.84 95.2754 151.598 95.8961 149.593 97.024C148.652 97.5533 147.533 98.2077 146.576 97.7083C142.876 95.7772 138.572 95.1772 134.421 95.5758C130.27 95.9744 126.254 97.6566 122.487 99.4526C120.52 100.39 118.303 101.473 116.268 100.698C108.835 97.8682 100.356 97.5937 92.9568 100.51C91.645 101.027 90.1824 100.453 88.8914 99.8859C87.495 99.2724 86.0986 98.6589 84.7023 98.0454C86.3256 98.3874 90.3564 99.8435 90.3564 99.8435C90.3564 99.8435 91.5176 99.9844 91.8831 99.5366C92.2485 99.0888 92.3639 98.4936 92.4957 97.9299C93.0753 95.4496 94.2021 93.0997 95.7717 91.098C96.0475 90.7462 96.638 90.4178 96.8578 90.8074C94.6856 93.3355 93.2371 96.4837 92.7281 99.7833C100.645 96.785 109.68 96.8796 117.533 100.043C118.283 95.6805 118.306 91.1925 117.601 86.8222C118.106 86.5842 118.477 87.3399 118.526 87.8979C118.888 91.9624 118.823 96.0652 118.333 100.116C122.875 97.9131 127.585 95.9224 132.565 95.119C137.545 94.3157 142.861 95.1065 147.259 97.5862Z" fill="#00160A"/>
<path fill-rule="evenodd" clip-rule="evenodd" d="M89.533 88.877C91.9073 82.0541 95.6083 75.6996 100.366 70.2765C100.715 69.8788 101.13 69.4565 101.657 69.4386C102.185 69.4206 102.68 70.1128 102.308 70.4885C96.8337 76.0148 92.564 82.7377 89.883 90.0525C89.4005 90.0653 89.3738 89.3345 89.533 88.877H89.533Z" fill="#00160A"/>
<path fill-rule="evenodd" clip-rule="evenodd" d="M82.0318 119.601C82.1012 119.686 82.1092 119.804 82.1147 119.914C82.3426 124.458 83.4926 128.898 84.6366 133.3C84.6854 133.488 84.4123 133.624 84.2408 133.534C84.0693 133.445 83.9942 133.242 83.9344 133.058C82.6 128.933 81.7483 124.652 81.4024 120.329C81.3852 120.113 81.373 119.881 81.4873 119.698C81.6016 119.514 81.8954 119.434 82.0318 119.601H82.0318Z" fill="#ECA718"/>
<path fill-rule="evenodd" clip-rule="evenodd" d="M117.78 82.702C117.304 82.722 117.148 82.0716 117.155 81.5929C117.227 76.5883 117.3 71.5836 117.372 66.579C117.38 66.0264 117.529 65.3066 118.076 65.2458C118.562 65.8179 118.552 66.6495 118.516 67.4008C118.27 72.5012 118.025 77.6016 117.78 82.702Z" fill="#00160A"/>
<path fill-rule="evenodd" clip-rule="evenodd" d="M163.671 90.3611C164.727 88.6394 164.656 86.4728 164.478 84.4587C164.166 80.9306 163.632 77.4224 162.878 73.9623C162.806 73.6306 162.763 73.2126 163.041 73.0196C163.271 72.8601 163.607 72.9703 163.787 73.1849C163.967 73.3994 164.03 73.6865 164.085 73.9615C164.95 78.2631 165.343 82.66 165.257 87.0474C165.225 88.6789 164.958 90.5929 163.532 91.375C163.258 91.1241 163.477 90.6783 163.671 90.3611H163.671Z" fill="#00160A"/>
<path fill-rule="evenodd" clip-rule="evenodd" d="M146.943 78.7665C147.302 80.3662 147.15 82.0773 146.515 83.588C146.079 83.1175 146.201 82.3796 146.277 81.7414C146.57 79.2623 145.706 76.7935 144.642 74.5367C143.579 72.2799 142.295 70.1008 141.656 67.6881C141.56 67.3252 141.574 66.7995 141.943 66.7353C142.254 66.6811 142.466 67.0347 142.582 67.3298C143.777 70.3689 144.972 73.408 146.167 76.447C146.465 77.2066 146.765 77.9698 146.943 78.7665Z" fill="#00160A"/>
<path fill-rule="evenodd" clip-rule="evenodd" d="M179.297 69.7236C179.481 67.9587 180.995 66.6358 182.547 65.7867C185.354 64.251 188.659 63.6517 191.823 64.1047C193.256 64.3098 194.349 62.9388 195.372 61.9114C198.03 59.245 202.091 58.2716 205.797 58.8875C209.503 59.5035 212.861 61.5593 215.566 64.177C218.271 66.7947 220.383 69.9622 222.337 73.1839C222.746 73.8597 223.697 73.8777 224.484 73.8389C226.183 73.7553 227.97 73.8024 229.453 74.6366C230.937 75.4708 231.98 77.3224 231.379 78.9198C231.098 79.668 230.501 80.2643 229.819 80.6771C228.459 81.5006 226.809 81.6423 225.225 81.7638C214.663 82.5736 204.1 83.3835 193.538 84.1934C190.648 84.415 187.712 84.634 184.874 84.0436C182.036 83.4532 179.257 81.9344 177.804 79.4161C176.351 76.8977 176.594 73.3105 178.823 71.45C179.294 71.057 179.233 70.3352 179.297 69.7236M183.298 66.3342C182.034 66.9393 180.772 67.8302 180.355 69.173C180.207 69.6514 180.176 70.1595 180.038 70.6411C179.681 71.8899 178.652 72.8276 178.109 74.0071C176.977 76.4659 178.267 79.5236 180.425 81.1492C182.583 82.7747 185.378 83.2579 188.069 83.4482C197.754 84.133 207.384 81.6654 217.09 81.4201C220.902 81.3237 224.836 81.5517 228.403 80.1955C229.753 79.6822 231.236 78.3834 230.656 77.0559C230.51 76.7206 230.246 76.4516 229.97 76.2128C228.263 74.7384 225.817 74.1743 223.64 74.7526C222.53 75.0476 221.603 73.9167 220.995 72.9383C218.35 68.6815 215.355 64.4385 211.081 61.8379C206.808 59.2373 200.949 58.6686 196.974 61.7089C195.188 63.0751 193.526 65.1979 191.293 64.9601C188.57 64.6701 185.77 65.1514 183.298 66.3342Z" fill="#00160A"/>
<path fill-rule="evenodd" clip-rule="evenodd" d="M35.3816 53.8615C35.0253 54.9786 35.4745 56.1808 35.9616 57.247C36.5277 58.4861 37.458 59.8839 38.813 59.798C42.9972 59.5326 47.1814 59.2673 51.3656 59.002C51.9718 58.9635 52.8058 59.1222 52.8094 59.7321C47.5625 60.1539 42.3155 60.5756 37.0685 60.9973C33.5391 61.2809 29.8486 61.617 26.8685 63.5369C23.8884 65.4567 21.9458 69.5046 23.5533 72.6724C24.1624 73.8727 25.3578 74.8761 26.6988 74.836C30.3128 74.7279 33.9268 74.6198 37.5409 74.5118C38.3829 74.4866 39.5352 74.7535 39.4975 75.5985C33.7542 75.2539 27.9769 75.482 22.2782 76.2783C20.2322 76.5642 18.1276 76.9498 16.4119 78.1049C14.6962 79.2599 13.4634 81.3807 13.9438 83.398C14.2754 84.7903 15.3616 85.9087 16.6176 86.5859C17.8737 87.2632 19.2955 87.5567 20.7016 87.7938C35.6122 90.3077 50.9088 87.3674 65.9885 88.4656C67.6757 88.5885 69.5024 88.8263 70.7041 90.0218C57.6943 87.5144 44.2776 90.3126 31.045 89.684C28.0997 89.544 25.1653 89.2341 22.2328 88.9242C19.8326 88.6706 17.3178 88.3757 15.3377 86.9901C14.385 86.3234 13.5864 85.4023 13.1879 84.3071C12.2006 81.5939 13.9429 78.4942 16.398 76.9886C18.853 75.4829 21.8322 75.1847 24.6971 74.9231C22.3556 73.3142 21.6594 69.9254 22.6725 67.2642C23.6855 64.603 26.0951 62.6627 28.736 61.6213C31.3769 60.5799 34.2542 60.3284 37.0883 60.1944C36.2526 59.0951 35.4043 57.9733 34.9371 56.6723C34.4699 55.3713 34.4355 53.8389 35.1809 52.676C35.6993 51.8673 36.5307 51.3199 37.3603 50.8392C45.2963 46.2412 54.8894 45.7073 64.0489 45.9353C66.5378 45.9973 69.1079 46.1269 71.3463 47.2214C74.8187 48.9195 76.9294 52.8455 76.9504 56.7237C76.9714 60.6019 75.1025 64.3439 72.3559 67.0705C71.9148 66.4568 72.4662 65.6409 72.9495 65.06C75.1871 62.3704 76.4584 58.7843 75.9824 55.3124C75.5064 51.8405 73.1341 48.5931 69.827 47.4726C68.4451 47.0043 66.9697 46.9054 65.5132 46.8309C56.0419 46.3463 46.1156 46.8441 37.8205 51.4598C36.7994 52.028 35.7378 52.7451 35.3816 53.8615Z" fill="#00160A"/>
<path fill-rule="evenodd" clip-rule="evenodd" d="M99.4769 120.751C92.9402 114.513 85.3936 108.197 83.6333 99.3162C86.8641 107.648 94.0383 113.646 100.33 119.972C106.622 126.299 112.582 134.19 112.193 143.123C122.482 140.867 133.143 140.339 143.602 141.565C144.674 136.717 147.795 132.635 150.244 128.32C156.314 117.623 158.367 105.17 160.317 93.0149C160.811 89.9418 157.063 88.1202 154.059 87.3516C151.059 86.584 148.059 85.8163 145.059 85.0487C139.42 83.606 133.578 82.1531 127.843 83.1396C123.965 83.8066 120.135 85.5811 116.257 84.9167C110.083 83.8592 103.532 85.1984 98.262 88.5958C95.6123 90.3038 93.282 92.6248 90.3654 93.7674C84.0503 96.2413 80.4234 99.2376 75.0169 106.078C72.9795 95.4954 76.4121 84.6657 80.4252 74.6692C84.9114 63.4944 90.5428 52.1879 100.195 45.0302C114.346 34.536 135.056 35.6066 149.776 45.2787C164.497 54.9508 173.493 71.8724 176.399 89.2945C176.737 91.3209 176.977 93.5141 176.027 95.3338C175.077 97.1535 172.46 98.2065 170.911 96.8641C169.59 95.7196 168.185 94.5327 166.472 94.2033C164.759 93.8738 162.68 94.7678 162.348 96.4873C159.915 109.08 157.361 121.993 150.602 132.878C148.842 135.713 146.793 138.419 145.673 141.565C144.817 143.972 144.541 146.542 144.271 149.084C143.709 154.38 143.146 159.676 142.584 164.972C142.347 167.204 142.016 169.635 140.397 171.183C138.851 172.661 136.549 172.926 134.422 173.116C127.516 173.732 120.61 174.348 113.704 174.964C112.469 175.074 111.068 175.13 110.166 174.276C109.471 173.618 109.279 172.598 109.142 171.649C108.172 164.911 108.172 158.033 109.143 151.296C110.535 141.629 106.227 131.738 99.4411 124.74C95.9046 121.093 91.7343 118.112 88.2036 114.459C84.6729 110.807 81.7179 106.216 81.5061 101.13C83.9085 107.814 88.3357 113.749 94.0481 117.944C102.585 124.213 108.667 133.764 110.753 144.175C112.392 135.27 106.014 126.99 99.4769 120.751ZM114.138 83.688C116.916 83.9604 119.824 84.6537 122.417 83.6156C129.397 80.82 137.494 80.9679 144.369 84.0165C147.303 85.3175 150.605 85.3892 153.765 85.9444C156.924 86.4997 160.259 87.7655 161.868 90.5517C163.674 93.6806 168.983 92.8158 171.04 95.7845C171.893 97.0157 173.992 96.5465 174.799 95.2849C175.607 94.0232 175.498 92.3992 175.317 90.9104C173.848 78.7917 169.428 66.9097 161.8 57.4029C154.173 47.8961 143.231 40.9051 131.226 38.9723C119.222 37.0395 106.268 40.4562 97.3834 48.7894C92.0056 53.8332 88.2756 60.3765 84.9982 66.9923C79.29 78.5149 74.6173 91.0944 75.5393 103.931C79.3704 99.2755 83.5323 94.3912 89.2785 92.6088C90.6506 92.1832 92.1541 91.9097 93.1955 90.9167C98.7158 85.6531 106.562 82.945 114.138 83.688ZM120.278 163.109C120.257 166.204 120.719 169.301 121.641 172.254C121.72 172.506 121.817 172.777 122.041 172.917C122.258 173.053 122.534 173.027 122.788 172.997C125.876 172.626 128.964 172.255 132.053 171.884C132.166 171.87 132.292 171.849 132.36 171.757C132.431 171.662 132.409 171.529 132.384 171.413C131.829 168.79 131.273 166.166 130.717 163.543C130.685 163.395 130.65 163.24 130.546 163.13C130.419 162.996 130.221 162.965 130.038 162.941C127.004 162.556 123.94 162.412 120.884 162.513C120.705 162.519 120.504 162.535 120.387 162.671C120.286 162.787 120.279 162.955 120.278 163.109ZM130.079 152.174C129.977 152.035 129.785 152.007 129.614 151.992C126.5 151.715 123.358 151.761 120.254 152.127C120.074 152.148 119.883 152.175 119.744 152.291C119.516 152.482 119.514 152.826 119.532 153.124C119.635 154.89 119.739 156.656 119.843 158.421C119.868 158.853 120.035 159.422 120.465 159.4C123.509 159.247 126.567 159.359 129.593 159.735C130.009 159.786 130.17 159.209 130.169 158.788C130.165 156.707 130.162 154.626 130.158 152.545C130.158 152.417 130.155 152.278 130.079 152.174ZM110.778 164.172C110.543 164.279 110.302 164.399 110.143 164.603C109.889 164.927 109.9 165.38 109.923 165.792C110.003 167.237 110.082 168.682 110.162 170.128C110.202 170.859 110.245 171.602 110.492 172.292C110.739 172.981 111.224 173.621 111.908 173.876C112.471 174.086 113.095 174.015 113.691 173.942C114.82 173.803 115.949 173.663 117.078 173.524C117.542 173.467 118.022 173.404 118.419 173.157C117.361 169.93 116.657 166.585 116.326 163.204C116.303 162.967 115.986 162.912 115.749 162.927C114.035 163.035 112.342 163.459 110.778 164.172ZM141.155 160.302C141.489 158.227 141.823 156.153 142.158 154.078C142.187 153.896 142.212 153.693 142.105 153.543C141.997 153.391 141.794 153.349 141.61 153.32C139.163 152.925 136.709 152.569 134.25 152.251C134.066 152.227 133.842 152.22 133.735 152.373C133.672 152.465 133.674 152.585 133.679 152.696C133.767 154.859 133.856 157.022 133.945 159.184C133.953 159.382 133.972 159.603 134.119 159.734C134.223 159.827 134.368 159.853 134.505 159.875C136.569 160.209 138.633 160.544 140.697 160.879C140.967 160.923 141.111 160.573 141.155 160.302ZM119.699 148.064C119.654 148.303 119.639 148.609 119.851 148.726C119.953 148.782 120.076 148.773 120.192 148.762C123.428 148.449 126.665 148.137 129.901 147.825C130.068 147.809 130.245 147.789 130.379 147.689C130.562 147.552 130.619 147.306 130.662 147.08C130.926 145.71 131.19 144.339 131.453 142.968C131.491 142.774 131.514 142.536 131.36 142.412C131.252 142.325 131.099 142.332 130.962 142.344C127.859 142.605 124.757 142.865 121.654 143.126C121.401 143.147 121.136 143.172 120.922 143.31C120.559 143.542 120.449 144.015 120.37 144.439C120.146 145.648 119.922 146.856 119.699 148.064ZM134.28 143.556C134.159 144.744 134.038 145.932 133.917 147.12C133.897 147.316 133.879 147.526 133.974 147.698C134.115 147.952 134.438 148.026 134.723 148.075C137.32 148.514 139.917 148.953 142.514 149.392C142.622 149.41 142.737 149.428 142.837 149.385C143.028 149.302 143.071 149.053 143.085 148.845C143.188 147.311 143.211 145.772 143.154 144.236C143.145 143.972 143.131 143.7 143.023 143.458C142.698 142.724 141.729 142.602 140.929 142.586C139.054 142.547 137.18 142.509 135.305 142.471C135.111 142.467 134.907 142.465 134.735 142.556C134.397 142.733 134.319 143.175 134.28 143.556ZM161.927 93.009C160.587 94.7632 160.22 97.0533 159.879 99.2376C158.158 110.287 155.925 121.592 149.87 130.979C147.796 134.194 145.211 137.369 144.918 141.189C146.06 137.213 149.223 134.203 151.395 130.685C152.988 128.104 154.051 125.233 155.025 122.358C157.375 115.419 159.267 108.323 160.685 101.132C161.194 98.5469 161.697 95.8275 163.355 93.7845C162.792 93.7788 162.24 93.479 161.927 93.009ZM115.465 159.812C115.645 159.765 115.838 159.71 115.955 159.565C116.08 159.409 116.086 159.191 116.085 158.991C116.083 157.084 116.081 155.178 116.078 153.271C116.078 153.133 116.074 152.984 115.988 152.878C115.863 152.725 115.633 152.731 115.438 152.753C113.931 152.918 112.439 153.216 110.983 153.641C110.813 153.691 110.634 153.748 110.513 153.879C110.373 154.029 110.338 154.246 110.31 154.449C110.027 156.508 109.914 158.59 109.972 160.667C109.977 160.837 110.002 161.038 110.151 161.116C110.255 161.169 110.38 161.141 110.493 161.112C112.151 160.678 113.808 160.245 115.465 159.812ZM139.735 170.084C140.832 168.76 140.842 166.87 140.797 165.147C140.788 164.812 140.395 164.645 140.071 164.565C138.337 164.136 136.575 163.819 134.801 163.616C134.645 163.599 134.475 163.585 134.345 163.673C134.148 163.808 134.15 164.095 134.175 164.334C134.416 166.558 134.876 168.758 135.546 170.891C135.624 171.139 135.726 171.411 135.96 171.523C136.086 171.583 136.231 171.585 136.37 171.581C137.634 171.544 138.926 171.06 139.735 170.084ZM113.219 144.435C112.788 144.56 112.348 144.706 112.009 145C111.687 145.28 111.482 145.671 111.322 146.067C110.816 147.326 110.7 148.704 110.591 150.058C110.582 150.161 110.577 150.275 110.64 150.358C110.734 150.481 110.921 150.465 111.073 150.436C112.387 150.189 113.7 149.942 115.014 149.694C115.388 149.624 115.802 149.528 116.014 149.211C116.158 148.995 116.176 148.721 116.19 148.462C116.27 146.904 116.35 145.346 116.431 143.787C115.345 143.915 114.27 144.132 113.219 144.435ZM120.593 151.107C123.461 150.796 126.359 150.757 129.235 150.993C129.561 151.02 129.919 151.042 130.183 150.848C130.597 150.544 130.541 149.918 130.442 149.413C130.417 149.281 130.387 149.142 130.295 149.044C130.149 148.889 129.904 148.895 129.692 148.913C126.821 149.155 123.95 149.397 121.08 149.638C120.684 149.672 120.261 149.715 119.953 149.968C119.646 150.221 119.546 150.763 119.863 151.004C120.064 151.157 120.342 151.135 120.593 151.107ZM142.448 150.878C142.103 150.524 141.584 150.42 141.098 150.334C138.95 149.95 136.802 149.567 134.654 149.184C134.373 149.134 134.029 149.108 133.86 149.338C133.787 149.439 133.766 149.567 133.748 149.691C133.657 150.304 133.732 151.159 134.345 151.24C136.787 151.563 139.229 151.886 141.671 152.209C141.913 152.241 142.173 152.27 142.389 152.156C142.826 151.926 142.793 151.232 142.448 150.878ZM117.7 163.048C117.554 163.45 117.627 163.894 117.703 164.314C118.166 166.884 118.668 169.447 119.244 171.994C119.322 172.337 119.408 172.694 119.635 172.962C119.862 173.23 120.276 173.374 120.572 173.185C121.017 172.902 120.853 172.226 120.662 171.733C119.674 169.188 119.393 166.427 119.256 163.699C119.232 163.22 119.14 162.636 118.692 162.47C118.293 162.323 117.845 162.647 117.7 163.048ZM140.586 163.522C141.106 163.323 140.746 162.432 141.118 162.016C138.959 161.475 136.757 161.104 134.54 160.908C134.017 160.861 133.774 161.653 134.086 162.077C134.397 162.502 134.966 162.622 135.484 162.712C135.95 162.793 136.416 162.874 136.882 162.955C137.977 163.145 139.072 163.335 140.166 163.525C140.306 163.55 140.453 163.573 140.586 163.522ZM121.102 161.573C123.782 161.415 126.477 161.516 129.138 161.875C129.67 161.946 130.407 161.884 130.478 161.35C130.552 160.798 129.811 160.555 129.256 160.527C126.564 160.393 123.865 160.374 121.171 160.471C120.693 160.488 120.039 160.731 120.165 161.194C120.262 161.548 120.736 161.595 121.102 161.573ZM131.392 152.501C131.266 152.764 131.263 153.067 131.262 153.36C131.256 155.008 131.25 156.656 131.244 158.304C131.243 158.67 131.244 159.049 131.397 159.381C131.55 159.713 131.901 159.983 132.259 159.919C132.854 159.814 132.964 159.014 132.931 158.408C132.836 156.655 132.74 154.901 132.645 153.147C132.622 152.716 132.509 152.174 132.088 152.086C131.803 152.026 131.518 152.237 131.392 152.501ZM133.223 163.905C133.104 163.561 132.829 163.242 132.469 163.193C132.109 163.143 131.711 163.467 131.78 163.826C132.202 166.008 132.625 168.191 133.047 170.374C133.145 170.885 133.282 171.454 133.721 171.731C134.16 172.008 134.923 171.636 134.759 171.142C134.093 169.139 133.421 167.1 133.35 164.988C133.338 164.624 133.342 164.25 133.223 163.905ZM118.533 159.249C118.729 158.897 118.713 158.47 118.692 158.068C118.619 156.664 118.547 155.26 118.474 153.856C118.451 153.42 118.413 152.946 118.119 152.624C117.826 152.302 117.181 152.299 117.04 152.712C117.003 152.822 117.006 152.941 117.01 153.057C117.077 154.935 117.144 156.814 117.21 158.692C117.222 159.018 117.257 159.39 117.52 159.581C117.845 159.817 118.337 159.601 118.533 159.249ZM117.527 143.884C117.155 144.4 117.139 145.083 117.136 145.719C117.133 146.596 117.13 147.473 117.127 148.35C117.125 148.82 117.296 149.462 117.762 149.417C118.127 149.381 118.272 148.934 118.333 148.571C118.606 146.943 118.878 145.315 119.15 143.687C118.768 143.179 117.899 143.369 117.527 143.884ZM114.971 162.175C115.354 162.141 115.782 162.108 116.041 161.822C116.3 161.536 116.138 160.926 115.756 160.978C114.579 161.14 113.401 161.302 112.224 161.464C111.613 161.548 110.964 161.649 110.499 162.055C110.034 162.461 109.88 163.286 110.356 163.679C111.756 162.839 113.346 162.321 114.971 162.175ZM110.678 151.587C110.326 151.924 110.263 152.6 110.679 152.852C112.027 152.401 113.423 152.094 114.836 151.939C115.185 151.901 115.554 151.864 115.833 151.651C116.112 151.439 116.235 150.98 115.982 150.736C115.783 150.543 115.467 150.572 115.194 150.613C114.137 150.772 113.08 150.931 112.024 151.09C111.543 151.162 111.029 151.25 110.678 151.587ZM132.705 142.526C132.58 142.659 132.543 142.849 132.51 143.029C132.262 144.4 132.014 145.77 131.766 147.141C131.721 147.388 131.693 147.688 131.886 147.849C132.082 148.014 132.403 147.913 132.558 147.708C132.713 147.503 132.747 147.234 132.775 146.978C132.929 145.605 133.083 144.231 133.237 142.857C133.251 142.733 133.261 142.595 133.184 142.498C133.071 142.355 132.829 142.393 132.705 142.526ZM132.241 160.678C131.725 160.615 131.224 161.277 131.546 161.687C131.771 161.974 132.035 162.267 132.391 162.345C132.746 162.423 133.188 162.163 133.154 161.799C133.105 161.279 132.757 160.741 132.241 160.678ZM132.445 150.157C132.619 149.737 132.661 149.065 132.211 149.012C132.035 148.992 131.869 149.1 131.748 149.23C131.188 149.835 131.477 150.989 132.256 151.254C132.506 150.965 132.594 150.543 132.48 150.178C132.357 149.778 132.285 150.543 132.445 150.157ZM118.505 150.926C118.4 150.539 118.08 150.175 117.681 150.171C117.163 150.166 116.824 150.904 117.164 151.295C117.504 151.687 118.279 151.451 118.344 150.936C118.402 150.479 118.625 151.37 118.505 150.926ZM118.82 161.559C118.943 161.454 119.031 161.308 119.068 161.151C118.727 160.768 118.13 160.645 117.667 160.86C117.564 160.908 117.465 160.974 117.406 161.071C117.239 161.35 117.516 161.724 117.836 161.777C118.155 161.83 118.468 161.674 118.755 161.522L118.82 161.559Z" fill="#00160A"/>
</svg>
