<svg width="242" height="242" viewBox="0 0 242 242" fill="none" xmlns="http://www.w3.org/2000/svg">
<path d="M155.489 162.341C166.311 163.661 175.596 170.334 183.237 171.249C191.729 172.264 204.572 166.685 217.668 173.252C221.039 174.942 223.807 176.974 222.776 179.498C220.979 183.897 217.197 185.621 208.911 186.817L208.028 186.939C201.623 187.791 194.739 187.997 177.288 188.112L171.325 188.158C150.053 188.343 137.751 189.339 121.821 190.611L120.197 190.743C90.862 193.157 67.4462 192.77 49.9495 190.094L49.4211 190.012C35.285 187.798 26.7861 184.136 22.6374 179.98C20.1951 177.534 18.7883 175.253 18.7157 172.815C18.643 170.377 22.2452 167.697 24.296 166.685C30.0089 163.866 31.873 162.844 42.856 161.401C47.5849 160.779 54.6696 160.829 62.8589 160.552C92.2366 159.561 137.621 160.162 155.489 162.341Z" fill="white"/>
<path fill-rule="evenodd" clip-rule="evenodd" d="M169.543 173.314C150.804 215.784 82.992 214.416 35.8076 185.429C26.7963 179.893 -4.17952 153.8 26.308 138.563C56.7955 123.327 47.0303 99.9236 71.6348 72.0097C100.089 39.7287 153.077 23.172 190.344 66.6047C285.062 176.995 175.853 159.013 169.543 173.314Z" fill="#D9E8FF"/>
<path fill-rule="evenodd" clip-rule="evenodd" d="M52.7422 67.7041C51.2408 65.2916 49.7363 64.3659 48.2563 65.1666C47.0034 65.8445 46.795 67.655 47.4616 70.5515L47.0622 70.7669C46.5132 71.063 46.3081 71.748 46.6042 72.297C46.6298 72.3444 46.6587 72.39 46.6908 72.4334L46.905 72.7198C50.0304 76.8659 52.5071 78.5641 54.4394 77.6302C56.0635 76.8454 56.3378 73.5023 55.5022 67.4527C55.4437 67.0291 55.0661 66.728 54.6456 66.7585L54.5928 66.764C54.4974 66.7772 54.4051 66.8074 54.3203 66.8531L52.7422 67.7041ZM48.3107 69.9022L51.7952 68.017L51.787 68.0042C50.5887 66.1458 49.5736 65.5546 48.7169 66.018L48.6776 66.0406C48.0451 66.4267 47.8698 67.6396 48.2726 69.7125L48.3107 69.9022ZM54.5744 67.8156L47.5216 71.6188C47.4432 71.6611 47.4139 71.759 47.4562 71.8374C47.4598 71.8442 47.464 71.8507 47.4686 71.8569L47.6763 72.1349C50.5331 75.9243 52.6818 77.4044 54.0182 76.7586C55.0336 76.2679 55.3 73.2877 54.5936 67.9565L54.5744 67.8156ZM53.1334 73.9136C53.2993 73.7398 53.4011 73.5044 53.4011 73.2452C53.4011 72.7106 52.9678 72.2772 52.4332 72.2772C51.8985 72.2772 51.4652 72.7106 51.4652 73.2452C51.4652 73.7798 51.8985 74.2132 52.4332 74.2132C52.4753 74.2132 52.5167 74.2105 52.5574 74.2053L53.1077 75.2154L53.1276 75.2474C53.2207 75.3794 53.4001 75.4236 53.5454 75.3444C53.7019 75.2592 53.7596 75.0632 53.6744 74.9067L53.1334 73.9136Z" fill="#ECA718"/>
<path fill-rule="evenodd" clip-rule="evenodd" d="M155.489 162.341C166.311 163.661 175.596 170.334 183.237 171.249C191.729 172.264 204.572 166.685 217.668 173.252C221.039 174.942 223.807 176.974 222.776 179.498C220.979 183.897 217.197 185.621 208.911 186.817L208.028 186.939C201.623 187.791 194.739 187.997 177.288 188.112L171.325 188.158C150.053 188.343 137.751 189.339 121.821 190.611L120.197 190.743C90.862 193.157 67.4462 192.77 49.9495 190.094L49.4211 190.012C35.285 187.798 26.7861 184.136 22.6375 179.98C20.1951 177.534 18.7883 175.253 18.7157 172.815C18.6431 170.377 22.2452 167.697 24.296 166.685C30.009 163.866 31.873 162.844 42.856 161.401C47.5849 160.779 54.6696 160.829 62.8589 160.552C92.2366 159.561 137.621 160.162 155.489 162.341ZM42.6135 163.443L41.8937 163.539C31.6588 164.926 25.1161 167.452 22.0167 169.969L21.8233 170.131C19.4434 172.182 19.2209 174.487 22.6418 177.895C26.3822 181.622 35.9221 185.826 49.6778 187.97C66.8989 190.653 90.0516 191.432 119.127 189.098L122.176 188.853C138.962 187.533 151.841 186.831 175.677 186.663L182.257 186.614C196.447 186.486 202.479 186.232 208.302 185.423L208.855 185.343C234.567 180.314 216.015 171.29 205.37 171.249C196.255 171.213 185.306 173.778 182.257 172.818C172.647 169.793 167.712 165.161 155.489 163.679L151.935 163.253L148.901 163.11C99.1744 160.8 63.7357 160.682 42.6135 163.443Z" fill="#00160A"/>
<path d="M74.8188 46.5859C74.6422 46.5802 74.4654 46.5804 74.2889 46.5865C69.9375 46.7361 66.5218 50.35 66.6006 54.6896L66.6041 54.8214L66.6575 56.4475C66.8103 61.3318 66.8944 66.1968 66.9097 71.0424L66.936 85.9519C66.9418 91.3181 66.9385 96.1612 66.9228 100.904L66.9012 105.934C66.8167 121.947 66.5886 133.185 66.1652 138.077L66.0835 138.992C65.5725 144.971 65.4667 153.558 65.7697 164.733C65.7732 164.863 65.7797 164.992 65.7892 165.121C66.1241 169.652 70.0325 173.064 74.5535 172.804L74.6907 172.795L76.1933 172.686C90.2377 171.684 104.282 171.182 118.327 171.182C132.074 171.182 145.927 171.663 159.884 172.623C160.288 172.65 160.693 172.653 161.097 172.63C166.389 172.331 170.449 167.84 170.236 162.562L170.228 162.402L170.123 160.498C169.186 143.35 168.701 126.202 168.667 109.054L168.665 107.149C168.665 94.6505 169.251 77.5093 170.421 55.7179C170.434 55.4737 170.437 55.2292 170.429 54.9848C170.282 50.2545 166.366 46.5289 161.652 46.599L161.509 46.6023L154.373 46.8186C138.16 47.2968 126.355 47.5467 118.95 47.5681L117.681 47.5696L116.375 47.5662C108.815 47.5337 97.1128 47.2745 81.2601 46.7885L74.8188 46.5859Z" fill="white"/>
<path fill-rule="evenodd" clip-rule="evenodd" d="M160.956 46.1412C160.384 46.4544 159.631 46.6748 158.696 46.8019C161.102 47.0157 162.994 46.9658 164.372 46.6524L164.074 46.6155C163.104 46.493 162.065 46.3349 160.956 46.1412Z" fill="#E7EAEE"/>
<path fill-rule="evenodd" clip-rule="evenodd" d="M70.4392 161.533L70.5062 161.535C70.9221 161.564 71.2154 161.889 71.1772 162.247C71.1334 162.658 70.6948 163.056 70.216 163.089C69.8353 163.115 69.571 162.822 69.6132 162.368C69.6575 161.891 70.031 161.534 70.4392 161.533Z" fill="#E7EAEE"/>
<path fill-rule="evenodd" clip-rule="evenodd" d="M78.0561 167.765L78.1232 167.767C78.5391 167.796 78.8323 168.121 78.7941 168.48C78.7503 168.89 78.3117 169.288 77.8329 169.321C77.4523 169.347 77.1879 169.055 77.2301 168.6C77.2744 168.123 77.648 167.767 78.0561 167.765Z" fill="#E7EAEE"/>
<path fill-rule="evenodd" clip-rule="evenodd" d="M118.411 167.355C101.887 171.002 132.914 170.358 145.017 169.559C151.604 169.124 156.864 172.415 159.884 172.622C160.288 172.65 160.693 172.653 161.097 172.63C166.389 172.33 170.449 167.84 170.236 162.562L170.228 162.402L170.123 160.498C169.186 143.35 168.701 126.202 168.667 109.054L168.665 107.149C168.665 94.6502 169.251 77.5091 170.421 55.7177C170.434 55.4735 170.437 55.229 170.429 54.9846C170.282 50.2543 161.217 157.908 118.411 167.355Z" fill="#E7EAEE"/>
<path d="M167.422 162.947L167.48 162.949C167.781 162.973 168.028 163.287 167.992 163.67C167.953 164.094 167.587 164.475 167.222 164.504C166.966 164.524 166.749 164.248 166.788 163.775C166.827 163.29 167.13 162.954 167.422 162.947Z" fill="white"/>
<path fill-rule="evenodd" clip-rule="evenodd" d="M167.318 165.712C166.242 165.797 165.486 164.835 165.58 163.677C165.671 162.552 166.528 161.659 167.557 161.74C168.569 161.82 169.295 162.744 169.199 163.782C169.106 164.779 168.285 165.635 167.318 165.712ZM167.48 162.949L167.422 162.947C167.13 162.954 166.827 163.29 166.788 163.775C166.749 164.248 166.966 164.524 167.222 164.504C167.587 164.475 167.953 164.094 167.992 163.67C168.028 163.287 167.781 162.973 167.48 162.949Z" fill="white"/>
<path d="M157.187 53.5698C161.011 53.5698 164.111 56.67 164.111 60.4944C164.111 60.6375 164.107 60.7806 164.098 60.9235L163.996 62.6198C163.81 65.8395 163.625 69.6621 163.439 74.0878L163.411 74.7964C162.959 86.7017 162.945 114.867 163.368 159.292C163.405 163.116 160.334 166.246 156.51 166.282C156.417 166.283 156.324 166.282 156.231 166.28L80.261 163.936C76.7434 163.827 73.8667 161.097 73.574 157.59L73.5096 156.798C72.509 144.187 72.4495 128.085 73.3309 108.49L73.4602 105.68C73.9103 95.3688 73.9456 80.3513 73.5661 60.6276C73.4933 56.8438 76.4696 53.7106 80.2369 53.5744L80.4228 53.5701L157.187 53.5698Z" fill="white"/>
<path fill-rule="evenodd" clip-rule="evenodd" d="M106.11 135.23C109.466 135.371 112.913 134.776 115.901 133.316C119.645 131.487 122.462 128.418 124.021 124.018C126.074 118.222 125.32 111.955 122.368 106.44C119.74 101.53 115.609 97.794 111.801 96.8701C111.801 96.8701 122.368 111.735 120.854 119.861C118.539 132.286 106.11 135.23 106.11 135.23Z" fill="#E7EAEE"/>
<path fill-rule="evenodd" clip-rule="evenodd" d="M108.55 117.773C110.184 118.451 110.682 119.71 110.046 121.55L110.01 121.653C105.874 133.01 100.996 133.113 105.17 121.653C105.676 120.264 105.55 119.199 104.794 118.458C106.131 118.186 107.383 117.958 108.55 117.773Z" fill="#E7EAEE"/>
<path fill-rule="evenodd" clip-rule="evenodd" d="M82.6444 104.498C83.7146 101.318 85.2773 98.9277 88.198 97.0378L88.569 96.8026C89.1992 96.407 89.976 95.9592 90.6077 96.2651C91.4105 96.6539 92.5728 98.0706 91.8656 98.6268C91.3861 99.0039 89.412 99.405 87.9239 100.709C86.1672 102.248 84.9028 104.728 84.9028 105.335C84.9028 107.316 82.0125 106.375 82.6444 104.498Z" fill="#E7EAEE"/>
<path fill-rule="evenodd" clip-rule="evenodd" d="M79.335 59.1776C75.6612 69.265 75.6863 71.2664 75.4658 69.5278C74.7528 63.9047 74.2151 60.2096 75.0622 57.9651C76.1347 55.1234 78.8232 54.5644 79.5157 54.8942C80.9798 55.5915 79.335 59.1776 79.335 59.1776Z" fill="#E7EAEE"/>
<path fill-rule="evenodd" clip-rule="evenodd" d="M139.778 111.019L138.556 110.981C137.106 110.945 136.061 110.953 135.184 111.022C134.48 111.077 133.954 111.173 133.657 111.267L133.598 111.287L133.592 111.314C133.559 111.479 133.535 111.699 133.525 111.965L133.522 112.067C133.502 112.866 133.599 113.932 133.791 115.124C133.948 116.101 134.163 117.116 134.387 117.971L134.443 118.181C134.53 118.501 134.613 118.778 134.687 118.994L134.714 119.071L134.746 119.083C135.196 119.243 136.091 119.262 137.817 119.135L138.99 119.043C139.78 118.985 140.355 118.96 140.923 118.967L146.433 119.083C147.204 119.097 147.901 119.108 148.583 119.117L149.821 119.131C152.912 119.311 156.309 119.176 156.732 118.407C158.021 116.06 158.629 111.227 158.021 111.195C156.927 111.137 155.604 111.068 154.975 111.076L153.523 111.103L152.207 111.113C151.605 111.117 150.978 111.119 150.305 111.119L142.754 111.102C142.263 111.098 141.782 111.086 140.915 111.058L139.778 111.019Z" fill="#E7EAEE"/>
<path fill-rule="evenodd" clip-rule="evenodd" d="M81.8741 45.0753L74.8744 44.8556C74.6594 44.8487 74.4443 44.8489 74.2293 44.8563C68.8784 45.0403 64.6898 49.5272 64.8738 54.8781L64.9272 56.5015C64.9899 58.5063 65.0853 60.5078 65.1806 62.506C65.3424 65.8991 65.5037 69.2827 65.5037 72.6569L65.5262 84.8946C65.5477 101.961 65.496 130.067 64.738 138.208L64.681 138.847C64.1883 144.615 63.7456 152.73 63.9984 163.193L64.0391 164.78C64.0434 164.936 64.0513 165.092 64.0628 165.248C64.4715 170.778 69.2859 174.93 74.8161 174.521L76.3164 174.412L76.565 174.395C76.6151 174.478 76.666 174.562 76.7161 174.645C76.9591 175.046 77.1862 175.421 77.239 175.605C77.372 176.069 77.3861 176.594 77.3092 177.783L77.2313 178.898L77.2102 179.26C77.0967 181.482 77.3533 182.804 78.4372 183.799C79.8311 185.079 81.3079 184.943 84.3337 184.665L84.4696 184.653L85.2486 184.577C86.1488 184.49 87.1611 184.56 87.8509 184.608H87.8511C88.0497 184.622 88.2216 184.634 88.3563 184.64L88.611 184.653C90.3472 184.722 90.6229 184.15 90.7749 182.738C90.8586 181.959 90.7495 181.347 90.2922 179.766L89.9499 178.602L89.8363 178.196C89.3019 176.222 89.3508 175.237 90.0468 174.76C90.2157 174.644 90.9212 174.434 91.7347 174.192C92.5718 173.944 93.5233 173.661 94.1226 173.411C102.191 173.079 110.259 172.914 118.327 172.914C126.805 172.914 135.323 173.097 143.881 173.463C143.824 173.555 143.814 173.689 143.874 173.875C143.942 174.086 144.199 174.231 144.529 174.417C145.401 174.911 146.776 175.688 146.456 178.708L146.457 178.832C146.506 181.212 147.948 182.609 150.269 183.083C151.821 183.399 153.587 183.304 155.509 182.97C156.461 182.805 157.074 182.21 157.367 181.303C157.529 180.802 157.587 180.352 157.625 179.456C157.625 179.456 157.201 174.801 159.555 174.335C159.625 174.34 159.695 174.345 159.766 174.35C160.038 174.368 160.311 174.377 160.584 174.376C160.621 174.385 160.658 174.394 160.696 174.405C160.809 174.435 160.916 174.418 161.013 174.367C161.074 174.365 161.134 174.362 161.195 174.358C167.495 174.002 172.313 168.606 171.957 162.306L171.851 160.404C170.881 142.652 170.396 124.9 170.396 107.149C170.396 95.0603 170.946 78.5963 172.046 57.7567L172.149 55.8106C172.165 55.5177 172.168 55.2242 172.159 54.931C171.981 49.1972 167.189 44.6936 161.455 44.8719L157.821 44.9835C139.813 45.5295 126.855 45.814 118.948 45.8369L117.682 45.8384C110.299 45.8327 98.3636 45.5783 81.8741 45.0753ZM157.192 174.178C153.191 173.919 149.198 173.701 145.215 173.521C147.122 174.447 147.802 176.176 147.84 178.567L147.841 178.708C147.841 180.255 149.045 181.265 150.663 181.595C150.833 181.63 151.007 181.668 151.184 181.706C152.303 181.949 153.581 182.226 154.998 181.994L155.214 181.957C156.194 181.595 156.194 178.073 156.194 178.073C156.205 177.786 156.215 177.6 156.232 177.372L156.253 177.117C156.375 175.835 156.643 174.877 157.192 174.178ZM78.903 175.128C78.8089 174.8 78.6747 174.51 78.5013 174.261C81.898 174.031 85.2947 173.83 88.6913 173.659C88.1606 174.251 88.1108 175.049 88.0912 176.004C88.0744 176.826 88.2405 177.7 88.5901 178.932L88.611 179.006L88.9308 180.094C89.3223 181.439 89.44 182.001 89.407 182.473L89.3999 182.552C89.3528 182.99 88.7912 183.483 87.8423 183.428L87.6725 183.419C87.2658 183.357 83.2577 183.428 83.2577 183.428C81.407 183.615 80.5159 183.357 79.608 182.524C78.9985 181.964 78.835 180.97 78.9551 179.068L79.03 178C79.1241 176.603 79.1162 175.95 78.9404 175.265L78.903 175.128ZM74.2888 46.5864C74.4654 46.5803 74.6421 46.5802 74.8187 46.5858L81.2601 46.7884C97.1127 47.2744 108.815 47.5336 116.375 47.5661L117.68 47.5695L118.95 47.5681C126.355 47.5466 138.16 47.2967 154.373 46.8185L161.508 46.6022L161.652 46.5989C166.366 46.5288 170.282 50.2544 170.429 54.9847C170.437 55.2291 170.434 55.4737 170.421 55.7178C169.251 77.5092 168.665 94.6504 168.665 107.149L168.667 109.054C168.701 126.202 169.186 143.35 170.122 160.498L170.228 162.402L170.236 162.562C170.449 167.84 166.389 172.331 161.097 172.63C160.693 172.653 160.288 172.65 159.884 172.623C145.926 171.662 132.074 171.182 118.327 171.182C104.282 171.182 90.2377 171.684 76.1932 172.686L74.6907 172.795L74.5535 172.804C70.0325 173.064 66.1241 169.651 65.7892 165.121C65.7797 164.992 65.7732 164.863 65.7697 164.733C65.4666 153.558 65.5725 144.971 66.0834 138.992L66.1652 138.077C66.5885 133.185 66.8166 121.947 66.9012 105.934L66.9228 100.904C66.9385 96.1612 66.9418 91.318 66.9359 85.9518L66.9096 71.0424C66.8943 66.1967 66.8103 61.3317 66.6575 56.4474L66.6041 54.8213L66.6006 54.6896C66.5217 50.3499 69.9374 46.7361 74.2888 46.5864ZM164.111 60.4943C164.111 56.67 161.011 53.5698 157.187 53.5698L80.4228 53.5701L80.237 53.5743C76.4696 53.7105 73.4933 56.8437 73.5661 60.6275C73.9456 80.3512 73.9103 95.3687 73.4602 105.68L73.3309 108.49C72.4495 128.084 72.5091 144.187 73.5096 156.798L73.5741 157.59C73.8667 161.097 76.7435 163.827 80.2611 163.936L156.231 166.279C156.275 166.281 156.32 166.282 156.364 166.282C156.413 166.283 156.462 166.283 156.51 166.282C160.334 166.246 163.405 163.116 163.368 159.292C162.945 114.867 162.959 86.7016 163.411 74.7963L163.439 74.0878C163.625 69.6621 163.81 65.8394 163.996 62.6198L164.098 60.9234C164.107 60.7805 164.111 60.6374 164.111 60.4943ZM80.4894 55.3009H157.187C160.055 55.3009 162.38 57.6261 162.38 60.4943C162.38 60.6017 162.377 60.709 162.37 60.8161C162.189 63.7362 162.008 67.2221 161.828 71.2746L161.71 74.0154C161.252 84.9525 161.208 111.144 161.576 152.631L161.637 159.309C161.665 162.177 159.362 164.524 156.494 164.551C156.424 164.552 156.354 164.551 156.284 164.549L80.3144 162.205L80.2 162.201C77.6141 162.064 75.5155 160.038 75.2992 157.446C74.2331 144.672 74.1618 128.169 75.0884 107.948L75.1754 106.077C75.6124 96.3469 75.6745 82.3937 75.3627 64.2066L75.2969 60.5942C75.2418 57.7265 77.5218 55.357 80.3895 55.3019C80.4228 55.3012 80.4561 55.3009 80.4894 55.3009ZM77.8361 49.9916C77.9454 51.1685 77.0926 52.113 75.9435 52.0339C74.8927 51.9616 73.9683 51.1225 73.8605 50.112L73.8541 50.0381C73.7873 49.0326 74.5576 48.1779 75.5911 48.0683L75.6691 48.0614C76.7712 47.9856 77.7307 48.8566 77.8361 49.9916ZM75.8035 49.2687L75.7364 49.2712C75.3205 49.3 75.0272 49.6249 75.0655 49.9834C75.1093 50.3938 75.5479 50.792 76.0267 50.825C76.4073 50.8512 76.6717 50.5583 76.6295 50.1037C76.5852 49.627 76.2116 49.2704 75.8035 49.2687ZM69.6768 59.1708C68.4789 59.277 67.6717 58.1245 67.7713 56.7423C67.8689 55.3876 68.7992 54.2988 69.9513 54.401L70.0256 54.4091C71.0837 54.5467 71.8147 55.5876 71.7547 56.7542L71.7492 56.8358C71.6506 58.0284 70.7563 59.075 69.6768 59.1708ZM69.8623 55.6093L69.8035 55.6064C69.4361 55.6109 69.032 56.1075 68.9799 56.8294C68.928 57.5505 69.238 57.9931 69.5698 57.9637C70.02 57.9237 70.4887 57.3752 70.5416 56.7359C70.5917 56.1305 70.2509 55.6441 69.8623 55.6093ZM159.378 49.9916C159.268 51.1685 160.121 52.113 161.27 52.0339C162.321 51.9616 163.245 51.1225 163.353 50.112L163.36 50.0381C163.426 49.0326 162.656 48.1779 161.623 48.0683L161.545 48.0614C160.443 47.9856 159.483 48.8566 159.378 49.9916ZM161.41 49.2687L161.477 49.2712C161.893 49.3 162.186 49.6249 162.148 49.9834C162.104 50.3938 161.666 50.792 161.187 50.825C160.806 50.8512 160.542 50.5583 160.584 50.1037C160.628 49.627 161.002 49.2704 161.41 49.2687ZM165.83 57.1901C165.187 56.2345 165.578 55.0237 166.652 54.5299C167.688 54.0537 168.922 54.4491 169.407 55.4415L169.441 55.5124C169.862 56.4623 169.507 57.5567 168.603 58.0016L168.536 58.033C167.607 58.4449 166.418 58.064 165.83 57.1901ZM168.326 55.9881L168.295 55.9288C168.089 55.5761 167.594 55.4309 167.159 55.6309C166.744 55.8216 166.622 56.197 166.835 56.5136C167.103 56.9118 167.667 57.0925 168.045 56.9252C168.374 56.7791 168.509 56.3627 168.326 55.9881ZM68.8211 160.904C67.9808 161.736 68.027 163.007 68.9581 163.685C69.8096 164.305 71.0571 164.257 71.7892 163.552L71.8416 163.499C72.5391 162.772 72.4984 161.622 71.7772 160.874L71.7218 160.819C70.9264 160.052 69.6314 160.103 68.8211 160.904ZM70.8428 161.657L70.8926 161.702C71.1926 161.992 71.2085 162.429 70.9488 162.679C70.6514 162.965 70.0595 162.988 69.6715 162.706C69.3631 162.481 69.3487 162.087 69.6733 161.766C70.0137 161.429 70.5291 161.396 70.8428 161.657ZM76.5751 169.917C75.6441 169.239 75.5979 167.968 76.4381 167.136C77.2484 166.335 78.5434 166.284 79.3389 167.051L79.3942 167.106C80.1155 167.854 80.1561 169.004 79.4586 169.732L79.4063 169.784C78.6741 170.489 77.4267 170.538 76.5751 169.917ZM78.5096 167.934L78.4599 167.889C78.1461 167.628 77.6307 167.661 77.2903 167.998C76.9658 168.319 76.9801 168.713 77.2885 168.938C77.6765 169.22 78.2684 169.197 78.5658 168.911C78.8255 168.661 78.8096 168.224 78.5096 167.934ZM161.822 167.539C160.857 168.512 160.831 169.943 161.859 170.679C162.8 171.353 164.209 171.22 165.052 170.39C165.926 169.53 165.951 168.146 165.091 167.305C164.221 166.453 162.762 166.591 161.822 167.539ZM164.205 168.136L164.255 168.181C164.611 168.53 164.6 169.135 164.202 169.527C163.773 169.949 163.02 170.02 162.564 169.694C162.196 169.43 162.206 168.872 162.682 168.392C163.166 167.904 163.838 167.826 164.205 168.136ZM167.318 165.712C166.242 165.797 165.486 164.835 165.58 163.677C165.671 162.552 166.528 161.659 167.557 161.74C168.569 161.82 169.295 162.744 169.199 163.782C169.106 164.779 168.285 165.635 167.318 165.712ZM167.48 162.949L167.422 162.947C167.13 162.954 166.827 163.29 166.788 163.775C166.749 164.248 166.966 164.524 167.222 164.504C167.587 164.475 167.953 164.094 167.992 163.67C168.028 163.287 167.781 162.973 167.48 162.949Z" fill="#00160A"/>
<path fill-rule="evenodd" clip-rule="evenodd" d="M76.4381 167.136C75.5979 167.968 75.6441 169.239 76.5752 169.917C77.4267 170.538 78.6741 170.489 79.4063 169.784L79.4587 169.732C80.1561 169.004 80.1155 167.854 79.3942 167.106L79.3389 167.051C78.5434 166.284 77.2485 166.335 76.4381 167.136ZM78.4599 167.889L78.5096 167.934C78.8097 168.224 78.8256 168.661 78.5658 168.911C78.2685 169.197 77.6765 169.22 77.2885 168.938C76.9801 168.713 76.9658 168.319 77.2904 167.998C77.6307 167.661 78.1461 167.628 78.4599 167.889Z" fill="#00160A"/>
<path d="M164.205 168.136L164.255 168.181C164.611 168.53 164.6 169.135 164.202 169.527C163.773 169.949 163.02 170.02 162.564 169.694C162.196 169.43 162.206 168.872 162.682 168.392C163.166 167.904 163.838 167.826 164.205 168.136Z" fill="white"/>
<path fill-rule="evenodd" clip-rule="evenodd" d="M87.7916 93.8292C87.392 93.968 87.0315 94.1562 86.5859 94.4306L86.2439 94.6451L86.0743 94.7532C83.4925 96.4197 81.7688 98.4922 80.5425 101.299L80.4768 101.451L80.4277 101.436C80.1022 101.341 79.8072 101.294 79.4918 101.32C78.8193 101.376 78.1925 101.779 77.9687 102.53C77.619 103.703 77.7634 105.044 78.2173 106.417L78.3025 106.669C78.7454 107.942 79.2357 108.806 80.0507 109.058C81.1342 109.393 84.8777 107.909 86.1831 106.563C87.1142 105.602 86.7413 104.427 85.8551 103.749L85.7737 103.689L85.6881 103.63L85.5909 103.567L85.6559 103.451C85.7012 103.371 85.7487 103.29 85.7981 103.208C86.3274 102.33 86.9893 101.5 87.6599 100.913C87.9181 100.687 88.2167 100.479 88.557 100.286C89.0837 99.9863 91.1844 99.1617 91.538 98.8836C92.6739 97.9902 92.5424 96.6965 91.8241 95.575C91.3773 94.8774 90.675 94.2238 89.9961 93.895C89.2829 93.5497 88.5366 93.5704 87.7916 93.8292ZM89.3171 95.2974C90.1198 95.6861 91.2821 97.1028 90.5749 97.659C90.0954 98.0362 88.1213 98.4372 86.6332 99.7409C84.8765 101.28 83.6121 103.76 83.6121 104.367L83.8125 104.442C84.9079 104.864 85.3253 105.209 85.0645 105.478C83.9027 106.677 80.7451 107.642 80.5113 107.569C80.2812 107.498 78.9188 104.796 79.4617 102.975C79.5343 102.732 80.165 102.917 81.3538 103.53C82.4239 100.35 83.9867 97.96 86.9073 96.0701L87.2783 95.8348C87.9085 95.4393 88.6853 94.9914 89.3171 95.2974Z" fill="#00160A"/>
<path fill-rule="evenodd" clip-rule="evenodd" d="M90.1554 129.682C83.742 122.673 83.3708 110.717 90.2993 103.017C94.6038 98.2337 104.721 95.1526 111.801 96.8702C115.609 97.7941 119.74 101.53 122.368 106.44C125.32 111.955 126.074 118.222 124.021 124.018C122.462 128.418 119.645 131.487 115.901 133.316C112.913 134.776 109.466 135.371 106.11 135.23C100.053 134.975 92.5217 132.268 90.1554 129.682ZM120.842 107.257C118.428 102.748 114.668 99.3473 111.393 98.5526L111.198 98.5069C104.74 97.0421 95.4242 99.9101 91.5862 104.175C85.2676 111.197 85.6076 122.148 91.4325 128.514C93.4428 130.711 100.545 133.263 106.183 133.501C109.269 133.631 112.433 133.084 115.141 131.761C118.485 130.127 120.984 127.404 122.389 123.44C124.27 118.132 123.576 112.365 120.842 107.257ZM117.507 123.843C121.338 117.118 116.145 102.597 108.891 101.385C102.073 100.246 99.4886 101.899 96.5482 104.449L95.9796 104.948C90.2248 110.036 90.2248 120.966 95.8469 126.037C97.2598 127.312 103.476 130.581 108.246 129.581C111.409 128.918 115.81 126.821 117.507 123.843ZM101.498 103.282C101.859 103.152 102.24 103.046 102.646 102.962C102.591 103.088 102.544 103.222 102.506 103.364C102.291 104.154 102.313 104.831 102.545 106.477L102.704 107.568C102.717 107.664 102.729 107.752 102.741 107.842L102.776 108.12C103.022 110.204 102.799 111.291 101.867 111.891C101.014 112.44 100.175 112.647 98.2595 112.87L97.542 112.951C96.6583 113.053 96.194 113.124 95.6357 113.25L95.383 113.3C94.6095 113.463 93.9674 113.665 93.4689 113.92C93.7976 110.942 95.0168 108.11 97.1262 106.245C99.1158 104.486 100.119 103.776 101.498 103.282ZM108.606 103.092C108.326 103.045 108.053 103.003 107.788 102.966C107.843 103.107 107.891 103.257 107.929 103.415C108.091 104.075 108.119 104.661 108.08 105.997L108.061 106.573C108.041 107.128 108.031 107.458 108.028 107.775L108.028 108.155C108.045 109.844 108.309 110.967 108.959 111.728L109.031 111.809L109.06 111.821C109.1 111.837 109.151 111.856 109.212 111.876L109.276 111.897C109.425 111.944 109.611 111.997 109.85 112.06L110.25 112.162L111.956 112.58C112.291 112.663 112.589 112.739 112.875 112.814L113.344 112.941C114.755 113.329 115.836 113.708 116.623 114.13C115.448 108.872 112.214 103.695 108.606 103.092ZM116.811 117.998C116.909 117.936 117.001 117.873 117.088 117.809C117.13 119.77 116.801 121.584 116.003 122.986C114.856 125 111.67 126.917 108.559 127.729C108.638 127.531 108.701 127.315 108.75 127.084C108.902 126.374 108.926 125.561 108.866 124.409L108.829 123.789L108.772 122.974C108.666 121.346 108.692 120.664 108.834 120.501C109.472 119.767 110.357 119.486 112.609 119.163L113.131 119.088C115.013 118.814 115.896 118.581 116.811 117.998ZM103.58 126.886C103.604 127.178 103.701 127.476 103.858 127.757C103.06 127.589 102.229 127.346 101.382 127.036C99.489 126.343 97.6531 125.335 97.0064 124.752C94.9531 122.9 93.7712 120.104 93.4608 117.161C93.9926 117.406 94.696 117.613 95.5694 117.82L95.7037 117.851C96.0563 117.933 96.4169 118.009 96.8424 118.093L98.0581 118.329C100.78 118.889 102.185 119.537 102.827 120.402L102.891 120.493C103.317 121.113 103.434 121.815 103.469 123.638L103.488 124.936C103.503 125.714 103.527 126.229 103.58 126.886ZM105.627 103.036L105.705 103.043C106.44 103.131 106.596 103.812 106.509 106.382L106.479 107.273C106.472 107.542 106.469 107.758 106.469 107.996C106.47 109.607 106.663 110.859 107.181 111.862C107.085 111.81 106.974 111.781 106.857 111.781L106.739 111.783L106.71 111.783L106.697 111.778C106.498 111.704 106.281 111.728 106.105 111.831L106.087 111.842L106.026 111.852C104.516 112.103 103.015 113.005 102.211 114.2C101.348 115.482 101.39 116.881 102.375 118.079C101.438 117.585 100.195 117.188 98.554 116.841L98.0245 116.735C97.713 116.674 97.3245 116.6 97.3243 116.6L97.0114 116.538C96.7091 116.478 96.4412 116.421 96.184 116.363L96.0561 116.334C95.2746 116.152 94.6577 115.966 94.2263 115.772L94.1577 115.74C94.025 115.677 93.9197 115.616 93.8446 115.562L93.8348 115.554L93.8538 115.535C93.9071 115.482 93.9878 115.422 94.0982 115.358C94.4766 115.139 95.0998 114.939 95.9549 114.774L96.171 114.728C96.5514 114.649 96.9243 114.594 97.5063 114.524L98.4509 114.416C100.599 114.166 101.594 113.919 102.71 113.201C104.337 112.154 104.648 110.517 104.305 107.786L104.267 107.498C104.247 107.356 104.226 107.209 104.199 107.021L104.091 106.283C103.899 104.911 103.871 104.322 103.998 103.818L104.009 103.772C104.164 103.204 104.558 102.969 105.627 103.036ZM104.018 119.395C104.038 119.421 104.059 119.448 104.078 119.474C104.814 120.467 104.983 121.344 105.026 123.583L105.043 124.765C105.056 125.505 105.075 125.993 105.117 126.557L105.133 126.76C105.165 127.161 105.848 127.797 106.603 127.653C107.191 127.541 107.418 126.578 107.307 124.435L107.292 124.166L107.206 122.909C107.07 120.849 107.113 120.165 107.583 119.569C106.457 119.993 105.146 119.972 104.018 119.395ZM109.401 118.268C110.099 118.004 110.989 117.825 112.224 117.644L112.894 117.549C114.458 117.32 115.214 117.133 115.855 116.757L115.974 116.684C116.699 116.222 116.769 116.13 116.447 115.87L116.342 115.789C115.772 115.359 114.67 114.931 113.085 114.486L112.75 114.394C112.388 114.296 112.017 114.2 111.579 114.091L109.757 113.645C109.413 113.558 109.137 113.486 108.913 113.419C110.321 114.908 110.554 116.584 109.587 118.016L109.532 118.095C109.49 118.154 109.446 118.212 109.401 118.268ZM106.304 113.21L106.402 113.196L106.472 113.238C108.737 114.615 109.241 116.115 108.403 117.292C107.57 118.463 105.741 118.868 104.428 118.036C102.906 117.071 102.653 116.023 103.359 114.974C103.956 114.088 105.149 113.387 106.304 113.21Z" fill="#00160A"/>
<path d="M130.825 110.561C130.825 110.551 130.826 110.541 130.826 110.531C130.868 110.524 130.913 110.517 130.961 110.511C131.578 110.423 132.384 110.385 133.349 110.383C134.302 110.381 135.325 110.414 136.367 110.45C136.43 110.452 136.494 110.455 136.559 110.457C137.518 110.49 138.5 110.524 139.376 110.525C140.361 110.526 141.365 110.53 142.38 110.533C144.872 110.542 147.424 110.551 149.885 110.525C150.009 110.524 150.179 110.52 150.386 110.516C151.178 110.5 152.511 110.472 153.893 110.516C154.76 110.544 155.563 110.599 156.186 110.689C156.284 110.703 156.371 110.718 156.449 110.732C156.474 110.839 156.498 110.967 156.52 111.117C156.629 111.869 156.636 112.869 156.517 113.89C156.395 114.926 156.165 115.795 155.914 116.338C155.901 116.366 155.889 116.392 155.877 116.416C151.64 116.799 144.865 116.651 139.293 116.53C138.649 116.515 138.022 116.502 137.417 116.489C136.594 116.472 135.757 116.528 135.021 116.585C134.828 116.6 134.644 116.615 134.466 116.629C133.924 116.673 133.443 116.712 132.971 116.732C132.468 116.753 132.088 116.746 131.801 116.716C131.773 116.62 131.744 116.515 131.713 116.403C131.495 115.602 131.258 114.535 131.082 113.444C130.903 112.333 130.807 111.31 130.825 110.561ZM156.917 110.844C156.916 110.844 156.91 110.842 156.899 110.837C156.911 110.841 156.917 110.844 156.917 110.844ZM156.334 110.354C156.328 110.342 156.325 110.335 156.325 110.335C156.325 110.334 156.328 110.34 156.334 110.354ZM155.708 116.695C155.707 116.693 155.72 116.674 155.747 116.647C155.722 116.684 155.708 116.698 155.708 116.695ZM130.886 109.929C130.887 109.928 130.887 109.926 130.888 109.924C130.896 109.894 130.898 109.899 130.886 109.929Z" stroke="#D3D3D3" stroke-width="5.36509"/>
<path fill-rule="evenodd" clip-rule="evenodd" d="M139.359 108.01C140.358 108.011 141.371 108.015 142.389 108.018C144.485 108.026 146.607 108.033 148.685 108.02L149.838 108.01C149.937 108.009 150.084 108.006 150.269 108.002C152.003 107.966 157.121 107.858 158.246 108.712C160.087 110.109 159.355 118.907 156.722 119.193C152.353 119.668 145.012 119.506 139.233 119.379C138.58 119.365 137.948 119.351 137.342 119.339C136.501 119.321 135.595 119.395 134.701 119.467L134.701 119.467H134.701H134.701C132.695 119.63 130.747 119.788 129.711 118.907C129.177 118.453 127.118 109.806 128.721 108.619C129.947 107.711 133.461 107.833 136.618 107.943C137.402 107.97 138.163 107.997 138.863 108.006L138.864 108.005L138.865 108.006C139.034 108.009 139.198 108.01 139.359 108.01ZM137.248 109.696C137.418 109.702 137.574 109.707 137.717 109.711C137.834 110.428 137.847 111.688 137.764 113.544L137.702 114.885C137.647 116.139 137.627 116.992 137.663 117.615L137.256 117.606C136.688 117.599 136.113 117.624 135.323 117.682L134.15 117.774C132.424 117.901 131.529 117.882 131.078 117.722L131.046 117.71L131.02 117.633C130.946 117.417 130.863 117.139 130.776 116.82L130.719 116.61C130.495 115.754 130.281 114.74 130.123 113.763C129.932 112.571 129.835 111.504 129.855 110.706L129.858 110.604C129.868 110.338 129.892 110.118 129.925 109.953L129.93 109.925L129.989 109.906C130.287 109.812 130.813 109.715 131.517 109.66C132.393 109.592 133.439 109.583 134.889 109.62L136.111 109.658L137.248 109.696ZM142.766 117.721L139.42 117.651C139.402 117.455 139.388 117.214 139.384 116.935L139.383 116.875C139.378 116.436 139.386 116.017 139.417 115.282L139.514 113.118C139.574 111.631 139.575 110.552 139.477 109.741L146.638 109.758C147.021 109.758 147.39 109.757 147.747 109.756C147.638 111.909 147.812 115.677 148.036 117.781C147.432 117.78 146.805 117.776 146.154 117.77L144.916 117.756C144.234 117.747 143.537 117.736 142.766 117.721ZM149.794 117.775C152.455 117.753 154.591 117.666 156.246 117.502L156.401 117.486L156.422 117.464C156.51 117.364 156.613 117.203 156.719 116.988L156.759 116.905C157.069 116.232 157.315 115.252 157.442 114.168C157.568 113.095 157.567 112.007 157.442 111.148C157.384 110.751 157.303 110.426 157.212 110.199L157.186 110.137L157.166 110.097L157.097 110.076C156.912 110.021 156.658 109.968 156.347 109.922C155.733 109.83 154.943 109.769 154.019 109.737C153.16 109.707 152.286 109.702 151.308 109.715L149.856 109.741L149.443 109.745C149.43 109.979 149.42 110.257 149.416 110.569L149.415 110.67C149.408 111.514 149.438 112.577 149.498 113.754L149.511 113.991C149.56 114.915 149.626 115.869 149.696 116.708L149.739 117.196C149.758 117.405 149.776 117.599 149.794 117.775ZM142.171 112.665L142.329 112.892C142.509 113.146 142.679 113.371 142.841 113.569C142.624 114.043 142.509 114.576 142.474 115.262C142.461 115.511 142.652 115.724 142.902 115.737C143.151 115.75 143.364 115.558 143.377 115.309C143.397 114.914 143.446 114.588 143.532 114.299C144.032 114.737 144.47 114.899 144.931 114.908L145.02 114.908C145.27 114.908 145.472 114.705 145.472 114.456C145.472 114.222 145.294 114.029 145.066 114.006L145.02 114.004L144.944 114.004C144.649 113.997 144.352 113.872 143.947 113.464C144.078 113.279 144.237 113.096 144.428 112.901L144.913 112.421C145.09 112.246 145.091 111.959 144.915 111.782C144.74 111.605 144.453 111.603 144.276 111.779L143.87 112.179C143.673 112.376 143.499 112.566 143.348 112.756L143.184 112.533C143.099 112.416 143.01 112.289 142.916 112.154C142.775 111.948 142.494 111.895 142.288 112.037C142.082 112.178 142.03 112.46 142.171 112.665ZM154.518 112.235L154.522 111.959C154.524 111.709 154.324 111.505 154.074 111.503C153.824 111.501 153.62 111.702 153.618 111.952C153.616 112.226 153.609 112.472 153.597 112.692C153.366 112.619 153.116 112.559 152.842 112.506L152.282 112.401C152.036 112.355 151.8 112.516 151.753 112.761C151.707 113.007 151.868 113.243 152.113 113.29L152.783 113.416C153.05 113.472 153.284 113.535 153.497 113.614C153.389 114.179 153.213 114.448 152.971 114.619L152.909 114.661L152.872 114.689C152.696 114.836 152.656 115.095 152.787 115.289C152.926 115.496 153.207 115.551 153.414 115.411L153.488 115.361C153.865 115.097 154.138 114.717 154.308 114.074C154.541 114.266 154.763 114.509 155.001 114.825C155.151 115.024 155.435 115.064 155.634 114.914C155.834 114.764 155.874 114.48 155.723 114.281C155.31 113.732 154.917 113.354 154.472 113.083C154.495 112.828 154.511 112.546 154.518 112.235Z" fill="#00160A"/>
<path fill-rule="evenodd" clip-rule="evenodd" d="M134.791 112.196L134.72 112.463C134.637 112.763 134.554 113.033 134.469 113.275C134.836 113.646 135.126 114.108 135.394 114.74C135.492 114.97 135.384 115.235 135.154 115.333C134.925 115.43 134.659 115.323 134.562 115.093C134.407 114.729 134.25 114.439 134.07 114.197C133.75 114.779 133.394 115.082 132.964 115.248L132.88 115.278C132.646 115.363 132.386 115.242 132.301 115.008C132.221 114.788 132.322 114.546 132.528 114.446L132.571 114.428L132.642 114.402C132.917 114.295 133.154 114.076 133.395 113.554C133.208 113.426 132.996 113.308 132.751 113.19L132.131 112.905C131.904 112.8 131.805 112.532 131.909 112.305C132.014 112.078 132.283 111.979 132.509 112.084L133.028 112.32C133.281 112.438 133.508 112.557 133.715 112.684C133.78 112.473 133.846 112.236 133.915 111.97C133.977 111.729 134.224 111.583 134.466 111.646C134.708 111.708 134.853 111.955 134.791 112.196Z" fill="#B0E9AF"/>
</svg>
