<svg width="70" height="70" viewBox="0 0 70 70" fill="none" xmlns="http://www.w3.org/2000/svg">
<circle cx="35" cy="35" r="34.2391" stroke="#D9E8FF" stroke-width="1.52174"/>
<path fill-rule="evenodd" clip-rule="evenodd" d="M35.034 13C46.1916 13 58.6536 29.7024 55.5047 42.4087C53.1589 51.8742 44.8813 57 35.034 57C24.8213 57 16.2983 51.4876 14.327 41.339C11.8504 28.587 23.8969 13 35.034 13ZM48.0098 37.567C49.8665 37.567 49.8665 41.4738 48.0098 41.4738C46.1537 41.4738 46.1543 37.567 48.0098 37.567ZM21.9914 37.567C23.8475 37.567 23.8475 41.4738 21.9914 41.4738C20.1353 41.4738 20.1353 37.567 21.9914 37.567ZM28.6409 43.7806C32.7866 45.418 36.9052 45.503 40.9774 43.7764C41.4327 43.5835 41.7499 44.5045 41.2831 44.703C37.0186 46.516 32.7046 46.4337 28.3635 44.7189C27.8262 44.5066 28.1229 43.5759 28.6409 43.7806ZM35.0009 37.9978C39.2045 37.9978 42.6134 40.4152 42.6134 43.3961C42.6134 46.377 39.2046 48.7944 35.0009 48.7944C30.7973 48.7944 27.3878 46.377 27.3878 43.3961C27.3878 40.4152 30.7973 37.9978 35.0009 37.9978ZM35.0341 54.8869C42.8739 54.8869 51.4017 51.2325 53.7318 41.8313C54.8679 37.2476 53.6522 32.0015 51.1448 27.3783C48.3131 25.4236 45.6652 27.0872 44.7758 29.5011C43.3913 33.2579 42.1671 36.1233 40.6017 38.1292C46.9744 42.1522 43.3177 50.2029 35.0009 50.2029C26.6871 50.2029 23.0286 42.1577 29.394 38.1327C27.8274 36.1267 26.6026 33.2599 25.2181 29.5011C24.2997 27.0098 21.5096 25.3178 18.5765 27.5775C16.3676 31.8044 15.2852 36.5506 16.1258 40.8792C18.0729 50.904 26.8439 54.8869 35.0341 54.8869Z" fill="black"/>
</svg>
